<svg xmlns="http://www.w3.org/2000/svg" viewBox="0 0 77.4 61.69"><defs><style>.cls-1{fill:#fff;}.cls-1,.cls-2,.cls-3{stroke:#000;stroke-miterlimit:10;}.cls-2{fill:#1eaabe;}.cls-3{fill:#ffdc00;stroke-width:0.5px;}</style></defs><g id="Capa_2" data-name="Capa 2"><g id="Capa_1-2" data-name="Capa 1"><path class="cls-1" d="M74.25,10c7.32,10.46-1,28-19,40-11.84,7.89-25,12-36,11-10.15-.92-16-6-18-12-4-12,8.44-30,26-40C48.64-3.14,67.25,0,74.25,10Z"/><ellipse class="cls-1" cx="36.45" cy="25.49" rx="37.25" ry="19.41" transform="translate(-7.84 21.37) rotate(-29.66)"/><ellipse class="cls-2" cx="35.49" cy="24.4" rx="34.77" ry="17.9" transform="translate(-7.42 20.76) rotate(-29.66)"/><polygon class="cls-3" points="30.42 36.49 27.2 27.93 16.09 30.88 26.25 22.17 25.24 14.6 32.95 17.21 45.4 11.3 42.05 18.67 50.16 22.35 37.24 25.37 30.42 36.49"/></g></g></svg>