<svg xmlns="http://www.w3.org/2000/svg" xmlns:xlink="http://www.w3.org/1999/xlink" viewBox="0 0 180 177.58"><defs><style>.cls-1{isolation:isolate;}.cls-2{fill:#009bdd;}.cls-3{fill:url(#Degradado_sin_nombre_103);}.cls-4{fill:url(#Degradado_sin_nombre_103-2);}.cls-5{mix-blend-mode:color-dodge;}.cls-6{fill:url(#Degradado_sin_nombre_103-3);}.cls-7{fill:url(#Degradado_sin_nombre_103-4);}.cls-8{fill:url(#Degradado_sin_nombre_103-5);}.cls-9{fill:url(#Degradado_sin_nombre_103-6);}.cls-10{fill:url(#Degradado_sin_nombre_103-7);}.cls-11{fill:url(#Degradado_sin_nombre_103-8);}.cls-12{fill:url(#Degradado_sin_nombre_103-9);}.cls-13{fill:url(#Degradado_sin_nombre_103-10);}.cls-14{fill:url(#Degradado_sin_nombre_103-11);}.cls-15{fill:url(#Degradado_sin_nombre_103-12);}.cls-16{fill:url(#Degradado_sin_nombre_103-13);}.cls-17{fill:url(#Degradado_sin_nombre_103-14);}.cls-18{fill:#fff;}.cls-19{fill:url(#Degradado_sin_nombre_103-15);}.cls-20{fill:url(#Degradado_sin_nombre_103-16);}.cls-21{fill:#2d73b4;fill-rule:evenodd;}</style><linearGradient id="Degradado_sin_nombre_103" x1="22.61" y1="88.79" x2="168.45" y2="88.79" gradientUnits="userSpaceOnUse"><stop offset="0" stop-color="#00004d"/><stop offset="1" stop-color="#2f002c"/></linearGradient><linearGradient id="Degradado_sin_nombre_103-2" x1="40.24" y1="127.05" x2="150.82" y2="127.05" xlink:href="#Degradado_sin_nombre_103"/><linearGradient id="Degradado_sin_nombre_103-3" x1="46.29" y1="114.5" x2="144.77" y2="114.5" xlink:href="#Degradado_sin_nombre_103"/><linearGradient id="Degradado_sin_nombre_103-4" x1="44.5" y1="108.92" x2="146.55" y2="108.92" xlink:href="#Degradado_sin_nombre_103"/><linearGradient id="Degradado_sin_nombre_103-5" x1="42.34" y1="103.43" x2="148.71" y2="103.43" xlink:href="#Degradado_sin_nombre_103"/><linearGradient id="Degradado_sin_nombre_103-6" x1="40.18" y1="98.1" x2="150.87" y2="98.1" xlink:href="#Degradado_sin_nombre_103"/><linearGradient id="Degradado_sin_nombre_103-7" x1="49.5" y1="119.44" x2="141.56" y2="119.44" xlink:href="#Degradado_sin_nombre_103"/><linearGradient id="Degradado_sin_nombre_103-8" x1="51.87" y1="124.41" x2="139.18" y2="124.41" xlink:href="#Degradado_sin_nombre_103"/><linearGradient id="Degradado_sin_nombre_103-9" x1="56.82" y1="129.43" x2="134.23" y2="129.43" xlink:href="#Degradado_sin_nombre_103"/><linearGradient id="Degradado_sin_nombre_103-10" x1="61.62" y1="134.48" x2="129.43" y2="134.48" xlink:href="#Degradado_sin_nombre_103"/><linearGradient id="Degradado_sin_nombre_103-11" x1="66.26" y1="139.6" x2="124.8" y2="139.6" xlink:href="#Degradado_sin_nombre_103"/><linearGradient id="Degradado_sin_nombre_103-12" x1="70.74" y1="144.86" x2="120.32" y2="144.86" xlink:href="#Degradado_sin_nombre_103"/><linearGradient id="Degradado_sin_nombre_103-13" x1="75.06" y1="150.16" x2="115.99" y2="150.16" xlink:href="#Degradado_sin_nombre_103"/><linearGradient id="Degradado_sin_nombre_103-14" x1="83.31" y1="155.46" x2="107.74" y2="155.46" xlink:href="#Degradado_sin_nombre_103"/><linearGradient id="Degradado_sin_nombre_103-15" x1="11.68" y1="95.67" x2="179.38" y2="95.67" xlink:href="#Degradado_sin_nombre_103"/><linearGradient id="Degradado_sin_nombre_103-16" x1="0" y1="65.45" x2="180" y2="65.45" xlink:href="#Degradado_sin_nombre_103"/></defs><g class="cls-1"><g id="Capa_2" data-name="Capa 2"><g id="Capa_1-2" data-name="Capa 1"><path class="cls-2" d="M154.68,63.66V75.19a95.14,95.14,0,0,1-5.38,31.62,94,94,0,0,1-53.77,56.07A94,94,0,0,1,41.81,107a95.05,95.05,0,0,1-5.43-31.78V63.66A37.33,37.33,0,0,1,55,31.42L76.92,18.76a37.2,37.2,0,0,1,37.22,0l21.93,12.66A37.34,37.34,0,0,1,154.68,63.66Z"/><path class="cls-3" d="M143,19.49,121,6.83a51,51,0,0,0-51,0L48.1,19.49A51,51,0,0,0,22.61,63.66V75.19A108.28,108.28,0,0,0,95.53,177.58,108.36,108.36,0,0,0,168.45,75.19V63.66A51,51,0,0,0,143,19.49Zm11.73,55.7a95.14,95.14,0,0,1-5.38,31.62,94,94,0,0,1-53.77,56.07A94,94,0,0,1,41.81,107a95.05,95.05,0,0,1-5.43-31.78V63.66A37.33,37.33,0,0,1,55,31.42L76.92,18.76a37.2,37.2,0,0,1,37.22,0l21.93,12.66a37.34,37.34,0,0,1,18.61,32.24Z"/><path class="cls-2" d="M149.27,106.81A94,94,0,0,1,95.5,162.88,94.09,94.09,0,0,1,41.78,107l53.37,10.29Z"/><path class="cls-4" d="M150.82,103.75A96.74,96.74,0,0,1,95.5,161.42,96.75,96.75,0,0,1,40.24,103.9l54.9-11.23Z"/><g class="cls-5"><path class="cls-6" d="M46.29,117.29a194.75,194.75,0,0,1,24.46-4.21,228,228,0,0,1,24.78-1.38,220.73,220.73,0,0,1,24.78,1.35,187.83,187.83,0,0,1,24.46,4.24c-8.24-.85-16.44-1.62-24.64-2.13s-16.4-.76-24.6-.78-16.4.24-24.6.75S54.52,116.41,46.29,117.29Z"/><path class="cls-7" d="M44.5,111.82a200.18,200.18,0,0,1,25.35-4.37A234.42,234.42,0,0,1,95.53,106a229.66,229.66,0,0,1,25.68,1.4,194.6,194.6,0,0,1,25.34,4.4c-8.54-.89-17-1.69-25.53-2.22s-17-.79-25.49-.81-17,.26-25.49.78S53,110.9,44.5,111.82Z"/><path class="cls-8" d="M42.34,106.45a209.6,209.6,0,0,1,26.42-4.55,244.38,244.38,0,0,1,26.77-1.49,241.57,241.57,0,0,1,26.76,1.45,203.85,203.85,0,0,1,26.42,4.59c-8.9-.93-17.76-1.75-26.61-2.31s-17.72-.82-26.57-.84-17.71.26-26.57.81S51.24,105.5,42.34,106.45Z"/><path class="cls-9" d="M40.18,101.24a217.11,217.11,0,0,1,27.5-4.74A256.51,256.51,0,0,1,95.53,95a249.25,249.25,0,0,1,27.85,1.52,209.84,209.84,0,0,1,27.49,4.77c-9.26-1-18.48-1.83-27.7-2.4S104.74,98,95.53,98s-18.43.27-27.65.84S49.44,100.25,40.18,101.24Z"/><path class="cls-10" d="M49.5,121.87a192,192,0,0,1,22.87-3.67A226.78,226.78,0,0,1,95.53,117a221,221,0,0,1,23.15,1.16,184.17,184.17,0,0,1,22.88,3.7c-7.72-.62-15.39-1.2-23-1.59s-15.32-.58-23-.6-15.32.18-23,.57S57.21,121.23,49.5,121.87Z"/><path class="cls-11" d="M51.87,126.52a193.12,193.12,0,0,1,21.71-3.18c7.29-.68,14.62-1,22-1s14.66.32,22,1a186.38,186.38,0,0,1,21.7,3.21c-7.33-.39-14.6-.82-21.87-1.1S102.79,125,95.53,125s-14.52.13-21.79.41S59.2,126.1,51.87,126.52Z"/><path class="cls-12" d="M56.82,131.25a170.88,170.88,0,0,1,19.25-2.75q9.71-.89,19.46-.89c6.49,0,13,.28,19.46.86a166,166,0,0,1,19.24,2.78c-6.5-.2-12.95-.48-19.4-.67s-12.87-.28-19.3-.3-12.87.09-19.31.27S63.32,131,56.82,131.25Z"/><path class="cls-13" d="M61.62,136.05a149.18,149.18,0,0,1,16.87-2.38c5.66-.5,11.35-.75,17-.76s11.38.24,17,.73a144.67,144.67,0,0,1,16.86,2.41c-5.7,0-11.35-.19-17-.29s-11.28-.15-16.91-.17-11.27,0-16.91.14S67.32,136,61.62,136.05Z"/><path class="cls-14" d="M66.26,140.92a125,125,0,0,1,14.56-2c4.89-.45,9.8-.64,14.71-.65s9.82.17,14.71.62a119.52,119.52,0,0,1,14.56,2.08c-4.93.11-9.81.07-14.68,0s-9.73,0-14.59-.06-9.72,0-14.59,0S71.18,141,66.26,140.92Z"/><path class="cls-15" d="M70.74,145.86a98.7,98.7,0,0,1,12.33-1.78c4.14-.39,8.3-.55,12.46-.56s8.31.15,12.45.52a97.12,97.12,0,0,1,12.34,1.82c-4.18.23-8.31.27-12.44.31s-8.24,0-12.35,0-8.23,0-12.36-.06S74.91,146.06,70.74,145.86Z"/><path class="cls-16" d="M75.06,150.85a81.68,81.68,0,0,1,10.19-1.56c3.41-.31,6.85-.46,10.28-.47s6.86.13,10.28.45A73.25,73.25,0,0,1,116,150.85c-3.45.34-6.86.45-10.27.55s-6.8.1-10.19.09-6.79,0-10.2-.12S78.51,151.17,75.06,150.85Z"/><path class="cls-17" d="M83.31,155.91a32.73,32.73,0,0,1,6.08-1.38,48.58,48.58,0,0,1,6.14-.41,43.41,43.41,0,0,1,6.13.39,29.72,29.72,0,0,1,6.08,1.4,44.71,44.71,0,0,1-6.13.73q-3,.18-6.08.16c-2,0-4-.07-6.09-.19A51.84,51.84,0,0,1,83.31,155.91Z"/></g><path class="cls-18" d="M54.71,118.48v6.36H53.25v-6.36h-2v-1.26h5.35v1.26Z"/><path class="cls-18" d="M56.94,120.15c0-2,.92-3,2.77-3a2.79,2.79,0,0,1,2,.71,3.15,3.15,0,0,1,.74,2.33v1.74a3.07,3.07,0,0,1-.76,2.33,2.85,2.85,0,0,1-2,.71c-1.82,0-2.73-1-2.73-3ZM61,121.87v-1.64a2.37,2.37,0,0,0-.32-1.41,1.14,1.14,0,0,0-1-.44,1.16,1.16,0,0,0-1,.43,2.52,2.52,0,0,0-.3,1.42v1.64a2.38,2.38,0,0,0,.3,1.36,1.21,1.21,0,0,0,1,.41,1.13,1.13,0,0,0,1-.43A2.19,2.19,0,0,0,61,121.87Z"/><path class="cls-18" d="M65,121.75v3.09H63.55v-7.62h2.9a2.58,2.58,0,0,1,1.78.61,2.18,2.18,0,0,1,.66,1.67,2.26,2.26,0,0,1-.35,1.27,2,2,0,0,1-1,.76l1.66,3.31H67.53l-1.45-3.09Zm1.37-1.2a1.1,1.1,0,0,0,.79-.27,1,1,0,0,0,.28-.78.94.94,0,0,0-.29-.74,1.05,1.05,0,0,0-.78-.28H65v2.07Z"/><path class="cls-18" d="M75.77,124.84H74.32l-2.8-4.76v4.76H70.07v-7.62h1.45l2.8,4.77v-4.77h1.45Z"/><path class="cls-18" d="M78.52,120.37h2.89v1.26H78.52v2h3.39v1.26H77.07v-7.62h4.84v1.26H78.52Z"/><path class="cls-18" d="M82.63,120.15c0-2,.92-3,2.77-3a2.79,2.79,0,0,1,2,.71,3.15,3.15,0,0,1,.74,2.33v1.74a3.07,3.07,0,0,1-.76,2.33,2.85,2.85,0,0,1-2,.71c-1.82,0-2.73-1-2.73-3Zm4.07,1.72v-1.64a2.37,2.37,0,0,0-.32-1.41,1.34,1.34,0,0,0-2,0,2.43,2.43,0,0,0-.31,1.42v1.64a2.29,2.29,0,0,0,.31,1.36,1.17,1.17,0,0,0,1,.41,1.13,1.13,0,0,0,1-.43A2.19,2.19,0,0,0,86.7,121.87Z"/><path class="cls-18" d="M97.47,124.84H96l-2.81-4.76v4.76H91.77v-7.62h1.45L96,122v-4.77h1.44Z"/><path class="cls-18" d="M100.16,123.36l-.47,1.48H98.17l2.7-7.62h1.19l2.71,7.62h-1.53l-.47-1.48Zm1.3-4.13-.92,2.93h1.85Z"/><path class="cls-18" d="M105.09,120.15c0-2,.93-3,2.8-3a2.9,2.9,0,0,1,2,.66,2.41,2.41,0,0,1,.74,1.87v.08h-1.45v-.07a1.25,1.25,0,0,0-.34-.93,1.3,1.3,0,0,0-1-.34,1.15,1.15,0,0,0-1,.43,2.46,2.46,0,0,0-.32,1.42v1.64a2.19,2.19,0,0,0,.33,1.35,1.19,1.19,0,0,0,1,.42,1.25,1.25,0,0,0,.94-.33,1.22,1.22,0,0,0,.33-.91v-.09h1.42v.08a2.37,2.37,0,0,1-.73,1.88,2.85,2.85,0,0,1-2,.66c-1.85,0-2.78-1-2.78-3Z"/><path class="cls-18" d="M113.22,117.22v7.62h-1.45v-7.62Z"/><path class="cls-18" d="M114.49,120.15c0-2,.93-3,2.77-3a2.79,2.79,0,0,1,2,.71,3.1,3.1,0,0,1,.74,2.33v1.74a3.1,3.1,0,0,1-.75,2.33,2.89,2.89,0,0,1-2,.71c-1.82,0-2.73-1-2.73-3Zm4.08,1.72v-1.64a2.44,2.44,0,0,0-.32-1.41,1.15,1.15,0,0,0-1-.44,1.13,1.13,0,0,0-1,.43,2.43,2.43,0,0,0-.31,1.42v1.64a2.29,2.29,0,0,0,.31,1.36,1.17,1.17,0,0,0,1,.41,1.15,1.15,0,0,0,1-.43A2.26,2.26,0,0,0,118.57,121.87Z"/><path class="cls-18" d="M126.81,124.84h-1.45l-2.81-4.76v4.76h-1.44v-7.62h1.44l2.81,4.77v-4.77h1.45Z"/><path class="cls-18" d="M129.49,123.36l-.46,1.48H127.5l2.71-7.62h1.18l2.72,7.62h-1.54l-.46-1.48Zm1.3-4.13-.91,2.93h1.84Z"/><path class="cls-18" d="M136.25,117.22v6.36h3.34v1.26H134.8v-7.62Z"/><path class="cls-18" d="M68.86,128.27a2.78,2.78,0,0,1,2,.7,3.12,3.12,0,0,1,.73,2.32v1.56a3.1,3.1,0,0,1-.75,2.33,2.85,2.85,0,0,1-2,.71H66.18v-7.62Zm1,5.93a2.33,2.33,0,0,0,.32-1.36v-1.47a2.37,2.37,0,0,0-.32-1.41,1.13,1.13,0,0,0-1-.43H67.62v5.1h1.23A1.15,1.15,0,0,0,69.83,134.2Z"/><path class="cls-18" d="M74.14,131.41H77v1.26h-2.9v2h3.39v1.26H72.69v-7.62h4.84v1.26H74.14Z"/><path class="cls-18" d="M81.45,134.71a2.6,2.6,0,0,1-.35-1.34v-5.1h1.45v5.06a1.4,1.4,0,0,0,.34,1,1.24,1.24,0,0,0,.94.36,1.25,1.25,0,0,0,.94-.36,1.41,1.41,0,0,0,.35-1v-5.06h1.46v5.1a2.51,2.51,0,0,1-.36,1.34,2.48,2.48,0,0,1-1,.92,3,3,0,0,1-1.41.33,3,3,0,0,1-1.4-.33A2.41,2.41,0,0,1,81.45,134.71Z"/><path class="cls-18" d="M89.33,128.27v6.36h3.33v1.26H87.88v-7.62Z"/><path class="cls-18" d="M95.22,129.53v6.36H93.77v-6.36h-2v-1.26h5.35v1.26Z"/><path class="cls-18" d="M99.4,128.27v7.62H98v-7.62Z"/><path class="cls-18" d="M107.55,135.89H106.1v-4.52l-1.44,3h-1l-1.47-3.08v4.55h-1.45v-7.62h1.45l2,4.2,1.93-4.2h1.45Z"/><path class="cls-18" d="M110.23,134.41l-.46,1.48h-1.52l2.7-7.62h1.18l2.72,7.62h-1.53l-.47-1.48Zm1.31-4.13-.92,2.92h1.85Z"/><path class="cls-18" d="M117.68,129.53v6.36h-1.46v-6.36h-1.94v-1.26h5.34v1.26Z"/><path class="cls-18" d="M121.79,131.41h2.89v1.26h-2.89v2h3.39v1.26h-4.84v-7.62h4.84v1.26h-3.39Z"/><path class="cls-18" d="M78,142.53h2.9v1.26H78v3.14H76.52v-7.62h4.84v1.26H78Z"/><path class="cls-18" d="M83.68,143.84v3.09H82.23v-7.62h2.89a2.54,2.54,0,0,1,1.78.61,2.18,2.18,0,0,1,.67,1.67,2.26,2.26,0,0,1-.35,1.27,2,2,0,0,1-1,.76l1.65,3.31H86.21l-1.45-3.09Zm1.37-1.2a1.1,1.1,0,0,0,.79-.27,1.06,1.06,0,0,0,.28-.78,1,1,0,0,0-.29-.74,1.05,1.05,0,0,0-.78-.28H83.68v2.07Z"/><path class="cls-18" d="M90.26,139.31v7.62H88.81v-7.62Z"/><path class="cls-18" d="M91.2,144.61h1.37a1.26,1.26,0,0,0,.4.89,1.5,1.5,0,0,0,1,.26c.81,0,1.22-.33,1.22-1a.93.93,0,0,0-.24-.69,1.41,1.41,0,0,0-.77-.33l-.72-.12c-1.38-.23-2.07-.94-2.07-2.12a2.12,2.12,0,0,1,.71-1.68,2.7,2.7,0,0,1,1.86-.62,2.54,2.54,0,0,1,1.78.6,2.43,2.43,0,0,1,.75,1.68h-1.4a1.08,1.08,0,0,0-.32-.81,1.53,1.53,0,0,0-1.69,0,.91.91,0,0,0-.28.71A.82.82,0,0,0,93,142a1.71,1.71,0,0,0,.8.33l.8.14a2.06,2.06,0,0,1,2,2.15,2.14,2.14,0,0,1-.74,1.75,3,3,0,0,1-2,.61,2.76,2.76,0,0,1-1.91-.61A2.48,2.48,0,0,1,91.2,144.61Z"/><path class="cls-18" d="M103,144.75a2.09,2.09,0,0,1-.62,1.61,2.45,2.45,0,0,1-1.72.57H97.63v-7.62h2.93a2.56,2.56,0,0,1,1.74.55,2,2,0,0,1,.63,1.57,1.82,1.82,0,0,1-.26.94,1.61,1.61,0,0,1-.7.64,1.76,1.76,0,0,1,.79.68A2,2,0,0,1,103,144.75Zm-4-2.32h1.38a1.07,1.07,0,0,0,.76-.24.87.87,0,0,0,.26-.67,1,1,0,0,0-.26-.71,1.07,1.07,0,0,0-.76-.24H99.07Zm2.51,2.22a1,1,0,0,0-.26-.71,1.06,1.06,0,0,0-.78-.25H99.07v2h1.47a1,1,0,0,0,.78-.27A1.05,1.05,0,0,0,101.58,144.65Z"/><path class="cls-18" d="M105.57,142.46h2.89v1.26h-2.89v1.95H109v1.26h-4.84v-7.62H109v1.26h-3.39Z"/><path class="cls-18" d="M111.44,142.46h2.9v1.26h-2.9v1.95h3.39v1.26H110v-7.62h4.83v1.26h-3.39Z"/><path class="cls-19" d="M175.36,108.63a8.3,8.3,0,0,1-9.61,5,310.1,310.1,0,0,0-140.44,0,8.32,8.32,0,0,1-9.61-5c-2.6-6.47-.83-4.23-3.42-10.69a8.32,8.32,0,0,1,5.88-11.22c53.79-12.3,101-12.3,154.74,0a8.34,8.34,0,0,1,5.88,11.22C176.19,104.4,178,102.16,175.36,108.63Z"/><path class="cls-2" d="M20.85,103.57l-1.22-5.89a3.72,3.72,0,0,1,.46-3,4,4,0,0,1,2.55-1.53,3.81,3.81,0,0,1,2.82.39A3.61,3.61,0,0,1,27,96.06l.09.39-2.33.48-.09-.39a1.69,1.69,0,0,0-.61-1.09,1.29,1.29,0,0,0-1.07-.2,1.19,1.19,0,0,0-1,.73,2.92,2.92,0,0,0,0,1.6l1.08,5.25q.39,1.9,1.8,1.62a1.19,1.19,0,0,0,.92-.68,2.2,2.2,0,0,0,.07-1.4L25.62,101l-1.38.28-.38-1.84,3.71-.76.7,3.37a3.66,3.66,0,0,1-.48,3,4,4,0,0,1-2.52,1.53,3.74,3.74,0,0,1-2.86-.41A3.76,3.76,0,0,1,20.85,103.57Z"/><path class="cls-2" d="M30.64,103.72a3.82,3.82,0,0,1-.81-1.8l-1.77-9.68,2.34-.43,1.76,9.62a1.86,1.86,0,0,0,.51,1.12,1.18,1.18,0,0,0,1,.2c.83-.15,1.14-.74,1-1.77l-1.76-9.62,2.34-.43L37,100.61a3.81,3.81,0,0,1-.12,2,3.14,3.14,0,0,1-1,1.49,4.06,4.06,0,0,1-3.68.68A3.38,3.38,0,0,1,30.64,103.72Z"/><path class="cls-2" d="M40.23,95.67l3.05-.49.34,2.09-3,.5.57,3.55,3.55-.58.34,2.1-5.88,1L37,90.63l5.87-.95.34,2.12-3.54.57Z"/><path class="cls-2" d="M47.84,97l.74,5.31-2.36.32L44.38,89.44l3.6-.5a3.55,3.55,0,0,1,2.9.55,4.58,4.58,0,0,1,1.23,2.89,5.78,5.78,0,0,1,0,2.26,2.57,2.57,0,0,1-1,1.48l2.78,5.47-2.45.35L49,96.86Zm.93-2.28a1,1,0,0,0,.91-.6,2.89,2.89,0,0,0,.08-1.43,3,3,0,0,0-.45-1.34,1,1,0,0,0-1.05-.32L47,91.22l.52,3.69Z"/><path class="cls-2" d="M56.73,95.86l.6,5.33-2.36.26L53.46,88.2l3.61-.41a3.57,3.57,0,0,1,2.89.62,4.61,4.61,0,0,1,1.15,2.93A5.8,5.8,0,0,1,61,93.59a2.58,2.58,0,0,1-1,1.46l2.63,5.54-2.46.28-2.27-5.13Zm1-2.25a1,1,0,0,0,.93-.58,3.8,3.8,0,0,0-.31-2.78,1.05,1.05,0,0,0-1-.35L56.06,90l.42,3.71Z"/><path class="cls-2" d="M65.35,92.46l3.08-.28.19,2.12-3.08.27.33,3.59,3.58-.33.19,2.12-5.93.54L62.51,87.2l5.93-.54.19,2.14-3.58.32Z"/><path class="cls-2" d="M72.87,94.35l.35,5.35-2.37.15L70,86.54l3.62-.23a3.51,3.51,0,0,1,2.85.76,4.54,4.54,0,0,1,1,3,5.7,5.7,0,0,1-.22,2.24,2.61,2.61,0,0,1-1.11,1.41l2.37,5.66L76,99.51l-2-5.23Zm1.1-2.2a1,1,0,0,0,1-.54,2.86,2.86,0,0,0,.18-1.41,2.91,2.91,0,0,0-.35-1.37,1.05,1.05,0,0,0-1-.4l-1.23.08.24,3.72Z"/><path class="cls-2" d="M79.44,95.63l-.23-6a3.72,3.72,0,0,1,1-2.91,3.93,3.93,0,0,1,2.76-1.08,3.71,3.71,0,0,1,2.73.87,3.81,3.81,0,0,1,1.13,2.83l.22,6a3.67,3.67,0,0,1-1,2.88,3.94,3.94,0,0,1-2.74,1.09,3.8,3.8,0,0,1-2.76-.87A3.84,3.84,0,0,1,79.44,95.63Zm5.19-.47-.21-5.35a2.88,2.88,0,0,0-.4-1.55,1.35,1.35,0,0,0-2.14.08,3,3,0,0,0-.28,1.57l.21,5.35c0,1.31.55,1.94,1.5,1.9a1.18,1.18,0,0,0,1-.55A2.47,2.47,0,0,0,84.63,95.16Z"/><path class="cls-2" d="M88.12,95.17l2.24,0a2.63,2.63,0,0,0,.41,1.45,1.3,1.3,0,0,0,1.06.45,1.18,1.18,0,0,0,1-.44,2.26,2.26,0,0,0,.31-1.36A2,2,0,0,0,92.78,94a3.19,3.19,0,0,0-1.22-.83l-.91-.39a4.35,4.35,0,0,1-1.89-1.41,4.11,4.11,0,0,1-.59-2.28,3.69,3.69,0,0,1,1-2.7,3.51,3.51,0,0,1,2.62-1,3.26,3.26,0,0,1,2.56,1,4.42,4.42,0,0,1,1,2.86l-2.19,0a2.66,2.66,0,0,0-.33-1.36,1.1,1.1,0,0,0-1-.44c-.87,0-1.29.52-1.28,1.54a1.75,1.75,0,0,0,.33,1.11,2.75,2.75,0,0,0,1.08.73l.88.38a4.58,4.58,0,0,1,2,1.52,4.33,4.33,0,0,1,.66,2.47,4,4,0,0,1-.94,2.87,3.64,3.64,0,0,1-2.73,1,3.45,3.45,0,0,1-2.7-1A4.28,4.28,0,0,1,88.12,95.17Z"/><path class="cls-2" d="M104.14,85.7a3.76,3.76,0,0,1,2.67,1,3.8,3.8,0,0,1,.94,2.89l-.15,5.68a3.68,3.68,0,0,1-1.13,2.82,4,4,0,0,1-2.79.9l-3.58-.09.35-13.33Zm.7,10.71a2.51,2.51,0,0,0,.39-1.44l.13-5a2.85,2.85,0,0,0-.3-1.56,1.18,1.18,0,0,0-1-.56l-1.28,0-.23,9.06,1.27,0A1.19,1.19,0,0,0,104.84,96.41Z"/><path class="cls-2" d="M111.73,91.47l3.09.16-.11,2.12-3.09-.15-.18,3.59,3.59.18-.11,2.12-5.94-.3.67-13.32,5.95.3-.11,2.15-3.59-.19Z"/><path class="cls-2" d="M119.47,86.45l-.81,11.18,3.56.26-.15,2.12-5.94-.44,1-13.29Z"/><path class="cls-2" d="M129.79,87.33l.54,10.09L133,87.67l2.6.28-4.39,13-2.45-.26-1.57-13.58Z"/><path class="cls-2" d="M139.11,88.41l-1.65,13.23-2.34-.29,1.65-13.23Z"/><path class="cls-2" d="M142.54,94.41l3.06.43L145.3,97l-3.06-.43-.5,3.56,3.56.5-.3,2.1-5.89-.83L141,88.65l5.89.83-.3,2.12L143,91.1Z"/><path class="cls-2" d="M153.63,104.08l-2.35-.39-1.6-7.47-1.15,7-2.34-.38,2.15-13.16,2.35.38,1.55,7.78,1.2-7.33,2.34.39Z"/><path class="cls-2" d="M161.08,94.08l-2,11-2.32-.43,2-11-2.28-.43.39-2.1,6.86,1.27-.39,2.11Z"/><path class="cls-2" d="M162.79,102,164,96.15a3.71,3.71,0,0,1,1.63-2.59,3.91,3.91,0,0,1,2.94-.39,3.66,3.66,0,0,1,2.44,1.5,3.81,3.81,0,0,1,.42,3l-1.22,5.89a3.66,3.66,0,0,1-1.62,2.57,4,4,0,0,1-2.92.41,3.45,3.45,0,0,1-2.88-4.51Zm5.15.79L169,97.58A2.77,2.77,0,0,0,169,96a1.14,1.14,0,0,0-.91-.73,1.18,1.18,0,0,0-1.18.29,2.88,2.88,0,0,0-.64,1.46l-1.09,5.25c-.26,1.27.08,2,1,2.2a1.21,1.21,0,0,0,1.12-.29A2.59,2.59,0,0,0,167.94,102.83Z"/><path class="cls-20" d="M180,64.56c-.27-9.27-15.41-13.67-21.9-15.14-7.92-1.79-21.63-3-36.37-1.08-14.14,1.85-20.27,4.82-20.52,4.95a.72.72,0,0,0-.36.9.73.73,0,0,0,.85.46,137.93,137.93,0,0,1,18-2.91c7.69-.63,11.47.56,12.41,1.21a40.2,40.2,0,0,1-5,1,59.42,59.42,0,0,0-8.38,1.81,61.43,61.43,0,0,0-11.45,5.13c-1.09.79-3.35,1.45-6.14-2-.41-.49-.77-1-1.12-1.43-2.53-3.29-4.36-5.66-15.15-7.19-11.43-1.62-21.44,1.32-30.27,3.9l-1.71.5A95.34,95.34,0,0,0,37.3,60.63a.72.72,0,0,0-.34.92.73.73,0,0,0,.9.41c.25-.09,25.39-8.4,37-7.87,12.06.55,15.71,3.57,16.54,4.48a2.28,2.28,0,0,1,.71,1.64C92,61.56,90,63.36,86.81,65a68.2,68.2,0,0,1-16.62,5.34,273.78,273.78,0,0,1-37,5.16,140.56,140.56,0,0,1-15.32.28C13.68,75.5,1,73.58.83,73.56A.73.73,0,0,0,.44,75c.35.15,8.81,3.68,26.23,3.89A118.9,118.9,0,0,0,48,77.46a60.05,60.05,0,0,1,7.9-.79c5.91-.11,7,.51,7.23.78,0,0,.05.07,0,.31-.51.65-4.85,1.66-10.33,1.73-5,.06-10.35-.27-10.41-.28a.72.72,0,0,0-.75.59.71.71,0,0,0,.48.82A67.32,67.32,0,0,0,62.88,83.5c11.05-.35,17.88-2.67,18.17-2.77a.73.73,0,0,0-.36-1.4c-3.21.54-8.87,1-10.38-.11a.58.58,0,0,1-.27-.37c-.24-1.59,3.31-4.24,14-6.95l.39-.1C91.53,70,98.21,68.34,103.31,71a.69.69,0,0,0,.64,0,.68.68,0,0,0,.4-.5c0-.06,1.4-5.85,12.26-9.66,11.8-4.14,30.15-6.08,39.27-4.14,10.93,2.33,16,5,16,8.29S163.08,72.8,147,74.26c-11.37,1-20.62-.19-24.12-3.21a3.41,3.41,0,0,1-1.34-2.37,2.69,2.69,0,0,1,.9-2c3.12-3.28,13.42-5.64,20.76-5.64h.4c10.31.12,17.37,1.88,17.56,4.37a1.64,1.64,0,0,1-.47,1.21c-1.81,2.08-7.64,3.3-10.21,3.46a77.36,77.36,0,0,1-11.29-.79.74.74,0,0,0-.79.48.72.72,0,0,0,.32.86c.23.15,5.92,3.44,15.83,2.38,6.91-.74,13.94-3.62,14-7.69a3,3,0,0,0-1.12-2.14c-3.46-3.28-13.94-6.29-26.58-5.41-15.48,1.09-32.07,7.24-32.27,12s6.2,6,11.34,7c1.37.27,2.6.48,3.69.67a31,31,0,0,1,4.35.94c-1.61.2-6-.16-11-1.08-4.69-.88-13.07-2.7-13.15-2.71A.72.72,0,0,0,103.4,76c.12.06,12.21,5.58,24.3,7a69.08,69.08,0,0,0,8.22.52c6.56,0,9.77-1.14,10-1.2A.73.73,0,0,0,145.8,81c-.22,0-5.35-1.35-8.22-1.75s-3.59-.72-3.86-.92c.4-.21,1.75-.54,6.39-.49h.11c1.11,0,2.94-.18,6-.5,2-.2,4.42-.46,7.48-.74,6.7-.62,10.37-1.52,13.86-2.82-2.48,1.64-7.89,4.36-8,4.39a.73.73,0,0,0-.38.84.71.71,0,0,0,.76.53,37.68,37.68,0,0,0,10-2.39C176.7,74.41,180.16,70.07,180,64.56Z"/><path class="cls-21" d="M103.6,74.6s12.26,5.28,24.37,6.73S145.69,81,145.69,81a68.45,68.45,0,0,0-8-2c-2.85-.39-5-.89-4.49-1.92s5.45-1,7.23-.93,5.69-.53,13.37-1.24,11.32-1.82,14.85-3.23c.75-.3,2.94-1.33,2.94-1.33s-1.86,1.87-2.75,2.57a89.28,89.28,0,0,1-8.74,4.94s19.76-1.52,19.38-14.2c-.25-8.14-13.13-12.6-21.34-14.46s-22-2.92-36.12-1.06-20.88,5.17-20.88,5.17a134.4,134.4,0,0,1,18.64-3.22c8.81-.72,13.43.89,13.42,2.07s-8.94,1.67-14.08,3.4a66,66,0,0,0-11.27,4.85c-1,.7-3.77,2.15-7.1-1.9S96.9,51.8,84.91,50.1s-22.24,1.64-31.67,4.38a94.29,94.29,0,0,0-15.42,5.83S63.2,51.86,75,52.4,93.14,56.11,93,59.28,85.55,67,70.52,70.12a272.56,272.56,0,0,1-37.08,5.17A144.33,144.33,0,0,1,18,75.57c-4.28-.31-17.48-2-17.48-2s8.85,3.41,26.33,3.62S48.3,75.13,56,75s8.27.9,7.9,2.07-5.89,2.13-11,2.2-10.71,0-10.71,0A73.23,73.23,0,0,0,63,81.81c11.07-.35,17.69-2.49,17.69-2.49S70,80.92,69.51,78s6.35-5.69,14.58-7.76c7.34-1.86,14.3-3.69,19.74-.88,0,0,1.27-6.16,12.73-10.19S146.73,53,156.22,55s16.59,4.6,16.54,9-10.5,8.64-25.51,10S121.3,72.79,121,67.76s13.87-8.49,22.78-8.38,18,1.51,18.28,5-8.21,5.25-11.36,5.45a95.91,95.91,0,0,1-11.63-.55s5.8,3.08,15.58,2c6.76-.73,13.3-3.52,13.37-7,.06-2.83-11-7.92-26.92-6.81s-31.43,7.35-31.6,11.28,5.06,5.17,10.76,6.28,9,1.33,9,2.52-7.49.32-12.24-.57S103.6,74.6,103.6,74.6Z"/><path class="cls-18" d="M84,21.05h2.67l1.57,4.78,1.54-4.78h2.68l-2.9,7.34,3.12,7.91H90L88.22,31,86.43,36.3H83.75l3.12-7.91Z"/><path class="cls-18" d="M95.9,21.05l1.84,11.41,1.85-11.41h3L99.15,36.3h-2.8L92.92,21.05Z"/><path class="cls-18" d="M106.42,21.05V36.3h-2.7V21.05Z"/></g></g></g></svg>